<svg width="30" height="30" viewBox="0 0 30 30" fill="none" xmlns="http://www.w3.org/2000/svg">
  <rect x="0.5" y="0.5" width="29" height="29" rx="2.5" fill="white" stroke="black"/>
  <path d="M6.125 23H23.375M6.125 23C5.82663 23 5.54048 22.8815 5.3295 22.6705C5.11853 22.4595 5 22.1734 5 21.875M6.125 23H13.625C14.246 23 14.75 22.496 14.75 21.875M23.375 23C23.996 23 24.5 22.496 24.5 21.875M23.375 23H15.875C15.5766 23 15.2905 22.8815 15.0795 22.6705C14.8685 22.4595 14.75 22.1734 14.75 21.875M5 21.875V9.125M5 21.875V20.375C5 19.754 5.504 19.25 6.125 19.25M14.75 21.875V20.375M5 9.125C5 8.504 5.504 8 6.125 8H23.375C23.996 8 24.5 8.504 24.5 9.125M5 9.125V10.625C5 11.246 5.504 11.75 6.125 11.75M6.125 19.25C5.504 19.25 5 18.746 5 18.125V16.625C5 16.004 5.504 15.5 6.125 15.5M6.125 19.25H13.625M24.5 21.875V9.125M24.5 21.875V20.375C24.5 19.754 23.996 19.25 23.375 19.25M24.5 9.125V10.625C24.5 11.246 23.996 11.75 23.375 11.75M23.375 19.25C23.996 19.25 24.5 18.746 24.5 18.125V16.625C24.5 16.004 23.996 15.5 23.375 15.5M23.375 19.25H15.875M23.375 11.75H6.125M23.375 11.75H15.875C15.254 11.75 14.75 12.254 14.75 12.875M23.375 11.75C23.996 11.75 24.5 12.254 24.5 12.875V14.375C24.5 14.996 23.996 15.5 23.375 15.5M6.125 11.75H13.625C14.246 11.75 14.75 12.254 14.75 12.875M6.125 11.75C5.504 11.75 5 12.254 5 12.875V14.375C5 14.996 5.504 15.5 6.125 15.5M14.75 12.875V14.375M6.125 15.5H13.625M23.375 15.5H15.875M13.625 15.5C14.246 15.5 14.75 14.996 14.75 14.375M13.625 15.5C14.246 15.5 14.75 16.004 14.75 16.625M14.75 14.375C14.75 14.996 15.254 15.5 15.875 15.5M15.875 15.5C15.254 15.5 14.75 16.004 14.75 16.625M14.75 16.625V18.125M13.625 19.25C14.246 19.25 14.75 18.746 14.75 18.125M13.625 19.25C14.246 19.25 14.75 19.754 14.75 20.375M14.75 18.125C14.75 18.746 15.254 19.25 15.875 19.25M15.875 19.25C15.254 19.25 14.75 19.754 14.75 20.375" stroke="#808080" stroke-width="1.5" stroke-linecap="round" stroke-linejoin="round"/>
</svg>
